<svg id="Layer_1" data-name="Layer 1" xmlns="http://www.w3.org/2000/svg" viewBox="0 0 800 800"><defs><style>.cls-1{fill:#fbbf24;fill-rule:evenodd;}</style></defs><g id="style_fill" data-name="style=fill"><g id="email"><path id="Subtract" class="cls-1" d="M226,78.3c-56.21,0-107,14-143.94,48.31-37.24,34.58-56.2,85.94-56.2,151.83V522.08c0,65.89,19,117.25,56.2,151.83,36.9,34.26,87.73,48.31,143.94,48.31H574c56.21,0,107.05-14.05,143.94-48.31,37.24-34.58,56.2-85.94,56.2-151.83V278.44c0-65.89-19-117.25-56.2-151.83C681.08,92.35,630.24,78.3,574,78.3ZM651.6,273.64a26.11,26.11,0,0,0-31.93-41.31L426.6,381.52a43.51,43.51,0,0,1-53.21,0L180.32,232.33a26.1,26.1,0,1,0-31.92,41.31L341.47,422.83a95.71,95.71,0,0,0,117,0Z"/></g></g></svg>