<svg id="Layer_1" data-name="Layer 1" xmlns="http://www.w3.org/2000/svg" viewBox="0 0 800 800"><defs><style>.cls-1{fill:#fbbf24;}</style></defs><path class="cls-1" d="M585.77,136.72,216.42,508.26l77.42,78.52L664.29,216.33l68.58,67.45c18.79,18.79,35.38,13.27,35.38-15.5V68.14c0-17.69-15.49-34.29-34.28-34.29H533.83c-28.77,0-35.39,16.6-16.6,35.39ZM626.71,650.9v-251h84V679.63c0,49.75-40.9,90.7-90.69,90.7H122.44c-49.75,0-90.69-40.91-90.69-90.7V180.91c0-49.75,40.9-90.69,90.69-89.56H428.73v84H151.17c-17.69,0-34.29,16.6-34.29,34.29V650.9c0,17.69,16.6,34.29,34.29,34.29H592.39c17.69,0,34.29-16.6,34.29-34.29Z"/></svg>