<svg id="Layer_1" data-name="Layer 1" xmlns="http://www.w3.org/2000/svg" viewBox="0 0 800 800"><defs><style>.cls-1{fill:#fbbf24;}</style></defs><path class="cls-1" d="M315.05,634.45a106.12,106.12,0,0,0,12.69-.56,14.88,14.88,0,0,0,8.43-5c2.81-3,4.22-7.22,4.22-12.84L340.2,590c-.14-16.62-.19-29.83-.19-39.52l-8.8,1.54a112.61,112.61,0,0,1-21.31,1.31,163.68,163.68,0,0,1-26.69-2.67,59.73,59.73,0,0,1-25.67-11.52,48.68,48.68,0,0,1-16.86-23.55l-3.84-8.85a95.6,95.6,0,0,0-12.08-19.53A46.15,46.15,0,0,0,208,472.56l-2.67-1.88a28.18,28.18,0,0,1-5-4.68,21.59,21.59,0,0,1-3.47-5.34c-.75-1.78-.14-3.28,1.88-4.4A24.93,24.93,0,0,1,210,454.53l7.68,1.17c5.15,1,11.48,4.07,19,9.18a62.77,62.77,0,0,1,18.59,19.95c5.9,10.49,13,18.49,21.31,24a45.16,45.16,0,0,0,25.1,8.25,109.57,109.57,0,0,0,21.87-1.88,76.9,76.9,0,0,0,17.28-5.8c2.29-17.1,8.52-30.3,18.73-39.48A263,263,0,0,1,320.25,463a157,157,0,0,1-36.06-15,103.24,103.24,0,0,1-30.91-25.66c-8.15-10.26-14.84-23.65-20.14-40.28a191.86,191.86,0,0,1-7.82-57.55q0-46.37,30.3-79-14.19-34.92,2.67-78.26,11.18-3.51,33,5.15c14.56,5.76,25.29,10.68,32,14.8s12.17,7.5,16.3,10.31a277.63,277.63,0,0,1,147.32,0l14.52-9.22a212,212,0,0,1,35.31-16.86q20.37-7.73,31.1-4.22,17.28,43.35,3,78.21,30.35,32.67,30.35,79.05,0,32.59-7.87,57.74t-20.32,40.27A107.3,107.3,0,0,1,542,448a156.55,156.55,0,0,1-36.06,15,263.53,263.53,0,0,1-39.34,6.89q19.95,17.21,20,54.46V616a25.2,25.2,0,0,0,1.92,10.58,10.57,10.57,0,0,0,6.14,5.57,35,35,0,0,0,7.49,1.88,78.86,78.86,0,0,0,9.37.42H315.05Z"/><path class="cls-1" d="M178.64,104.85a73.79,73.79,0,0,0-73.79,73.79V621.36a73.79,73.79,0,0,0,73.79,73.79H621.36a73.78,73.78,0,0,0,73.79-73.79V178.64a73.79,73.79,0,0,0-73.79-73.79Zm0-73.79H621.36A147.58,147.58,0,0,1,768.94,178.64V621.36A147.58,147.58,0,0,1,621.36,768.94H178.64A147.58,147.58,0,0,1,31.06,621.36V178.64A147.58,147.58,0,0,1,178.64,31.06Z"/></svg>