<svg id="Layer_1" data-name="Layer 1" xmlns="http://www.w3.org/2000/svg" viewBox="0 0 800 800"><defs><style>.cls-1,.cls-2{fill:#fbbf24;}.cls-1{fill-rule:evenodd;}</style></defs><path class="cls-1" d="M400,600c110.46,0,200-89.54,200-200S510.46,200,400,200,200,289.54,200,400,289.54,600,400,600Zm0-66.67A133.33,133.33,0,1,0,266.67,400,133.33,133.33,0,0,0,400,533.33Z"/><path class="cls-2" d="M600,166.67A33.33,33.33,0,1,0,633.33,200,33.33,33.33,0,0,0,600,166.67Z"/><path class="cls-1" d="M55.13,142.54c-21.8,42.78-21.8,98.78-21.8,210.79v93.34c0,112,0,168,21.8,210.79a200,200,0,0,0,87.41,87.41c42.78,21.8,98.78,21.8,210.79,21.8h93.34c112,0,168,0,210.79-21.8a200,200,0,0,0,87.41-87.41c21.8-42.78,21.8-98.78,21.8-210.79V353.33c0-112,0-168-21.8-210.79a200,200,0,0,0-87.41-87.41c-42.78-21.8-98.78-21.8-210.79-21.8H353.33c-112,0-168,0-210.79,21.8A200,200,0,0,0,55.13,142.54ZM446.67,100H353.33c-57.1,0-95.92,0-125.93,2.5-29.23,2.39-44.17,6.72-54.6,12a133.39,133.39,0,0,0-58.27,58.27c-5.31,10.43-9.64,25.37-12,54.6-2.45,30-2.5,68.83-2.5,125.93v93.34c0,57.1,0,95.92,2.5,125.93,2.39,29.23,6.72,44.17,12,54.6a133.39,133.39,0,0,0,58.27,58.27c10.43,5.31,25.37,9.64,54.6,12,30,2.45,68.83,2.5,125.93,2.5h93.34c57.1,0,95.92,0,125.93-2.5,29.23-2.39,44.17-6.72,54.6-12a133.39,133.39,0,0,0,58.27-58.27c5.31-10.43,9.64-25.37,12-54.6,2.45-30,2.5-68.83,2.5-125.93V353.33c0-57.1,0-95.92-2.5-125.93-2.39-29.23-6.72-44.17-12-54.6a133.39,133.39,0,0,0-58.27-58.27c-10.43-5.31-25.37-9.64-54.6-12C542.59,100.05,503.77,100,446.67,100Z"/></svg>