<svg id="Layer_1" data-name="Layer 1" xmlns="http://www.w3.org/2000/svg" viewBox="0 0 800 800"><defs><style>.cls-1{fill:#fbbf24;}</style></defs><path class="cls-1" d="M709.16,33.85H90.84A57.24,57.24,0,0,0,33.59,91.1V709.42a57.24,57.24,0,0,0,57.25,57.25H709.16a57.24,57.24,0,0,0,57.25-57.25V91.1A57.24,57.24,0,0,0,709.16,33.85ZM297.52,553.55H226.1V325h71.42Zm-37.64-257.2h-.57c-25.91,0-42.66-17.46-42.66-39.65,0-22.61,17.32-39.64,43.66-39.64s42.51,17,43.08,39.64C303.53,278.74,286.79,296.35,259.88,296.35ZM583.2,553.55h-81V435.33c0-30.92-12.59-52.1-40.5-52.1-21.33,0-33.21,14.31-38.65,28-2,4.87-1.71,11.74-1.71,18.75V553.55H341S342,344,341,325h80.3V360.9c4.72-15.74,30.34-38.07,71.27-38.07,50.81,0,90.6,32.92,90.6,103.62Z"/></svg>